# Blender v2.76 (sub 0) OBJ File: ''
# www.blender.org
o Cube
v 1.000000 -1.000000 -1.000000
v 1.000000 -1.000000 1.000000
v -1.000000 -1.000000 1.000000
v -1.000000 -1.000000 -1.000000
v 1.000000 1.000000 -0.999999
v 0.999999 1.000000 1.000001
v -1.000000 1.000000 1.000000
v -1.000000 1.000000 -1.000000
vt 0.000100 0.999900
vt 0.000100 0.750000
vt 0.250000 0.750000
vt 0.250000 0.499900
vt 0.250000 0.250000
vt 0.499900 0.250000
vt 0.499900 0.499900
vt 0.749800 0.250000
vt 0.250000 0.000100
vt 0.000100 0.250000
vt 0.499900 0.749800
vt 0.250000 0.749800
vt 0.250000 0.999900
vt 0.749800 0.499900
vt 0.499900 0.000100
vt 0.000100 0.499900
vn 0.000000 -1.000000 0.000000
vn 0.000000 1.000000 0.000000
vn 1.000000 0.000000 0.000000
vn -0.000000 0.000000 1.000000
vn -1.000000 -0.000000 -0.000000
vn 0.000000 0.000000 -1.000000
s off
f 2/1/1 3/2/1 4/3/1
f 8/4/2 7/5/2 6/6/2
f 5/7/3 6/6/3 2/8/3
f 6/6/4 7/5/4 3/9/4
f 3/10/5 7/5/5 8/4/5
f 1/11/6 4/12/6 8/4/6
f 1/13/1 2/1/1 4/3/1
f 5/7/2 8/4/2 6/6/2
f 1/14/3 5/7/3 2/8/3
f 2/15/4 6/6/4 3/9/4
f 4/16/5 3/10/5 8/4/5
f 5/7/6 1/11/6 8/4/6
