# Blender v2.76 (sub 0) OBJ File: ''
# www.blender.org
o Cylinder
v 0.000000 -3.000000 -0.300000
v 0.000000 3.000000 -0.300000
v 0.059979 -3.000000 -0.294236
v 0.059979 3.000000 -0.294236
v 0.117653 -3.000000 -0.277164
v 0.117653 3.000000 -0.277164
v 0.170805 -3.000000 -0.249441
v 0.170805 3.000000 -0.249441
v 0.217394 -3.000000 -0.212132
v 0.217394 3.000000 -0.212132
v 0.255628 -3.000000 -0.166671
v 0.255628 3.000000 -0.166671
v 0.284039 -3.000000 -0.114805
v 0.284039 3.000000 -0.114805
v 0.301534 -3.000000 -0.058527
v 0.301534 3.000000 -0.058527
v 0.307441 -3.000000 -0.000000
v 0.307441 3.000000 -0.000000
v 0.301534 -3.000000 0.058527
v 0.301534 3.000000 0.058527
v 0.284039 -3.000000 0.114805
v 0.284039 3.000000 0.114805
v 0.255628 -3.000000 0.166671
v 0.255628 3.000000 0.166671
v 0.217394 -3.000000 0.212132
v 0.217394 3.000000 0.212132
v 0.170805 -3.000000 0.249441
v 0.170805 3.000000 0.249441
v 0.117653 -3.000000 0.277164
v 0.117653 3.000000 0.277164
v 0.059979 -3.000000 0.294236
v 0.059979 3.000000 0.294236
v -0.000000 -3.000000 0.300000
v -0.000000 3.000000 0.300000
v -0.059979 -3.000000 0.294236
v -0.059979 3.000000 0.294236
v -0.117653 -3.000000 0.277164
v -0.117653 3.000000 0.277164
v -0.170805 -3.000000 0.249441
v -0.170805 3.000000 0.249441
v -0.217394 -3.000000 0.212132
v -0.217394 3.000000 0.212132
v -0.255628 -3.000000 0.166671
v -0.255628 3.000000 0.166671
v -0.284039 -3.000000 0.114805
v -0.284039 3.000000 0.114805
v -0.301534 -3.000000 0.058527
v -0.301534 3.000000 0.058527
v -0.307441 -3.000000 -0.000000
v -0.307441 3.000000 -0.000000
v -0.301534 -3.000000 -0.058527
v -0.301534 3.000000 -0.058527
v -0.284039 -3.000000 -0.114805
v -0.284039 3.000000 -0.114805
v -0.255628 -3.000000 -0.166671
v -0.255628 3.000000 -0.166671
v -0.217394 -3.000000 -0.212132
v -0.217394 3.000000 -0.212132
v -0.170805 -3.000000 -0.249441
v -0.170805 3.000000 -0.249441
v -0.117652 -3.000000 -0.277164
v -0.117652 3.000000 -0.277164
v -0.059978 -3.000000 -0.294236
v -0.059978 3.000000 -0.294236
v 0.000000 3.000000 -0.000000
v 0.029994 -3.000475 -0.297168
v 0.088831 -3.000475 -0.285748
v 0.144253 -3.000475 -0.263347
v 0.194132 -3.000475 -0.230825
v 0.236551 -3.000475 -0.189433
v 0.269879 -3.000475 -0.140762
v 0.292835 -3.000475 -0.086681
v 0.304539 -3.000475 -0.029268
v 0.304539 -3.000475 0.029268
v 0.292836 -3.000475 0.086681
v 0.269879 -3.000475 0.140762
v 0.236551 -3.000475 0.189433
v 0.194132 -3.000475 0.230825
v 0.144253 -3.000475 0.263347
v 0.088831 -3.000475 0.285748
v 0.029994 -3.000475 0.297168
v -0.029995 -3.000475 0.297168
v -0.088831 -3.000475 0.285748
v -0.144253 -3.000475 0.263347
v -0.194132 -3.000475 0.230825
v -0.236551 -3.000475 0.189433
v -0.269879 -3.000475 0.140762
v -0.292836 -3.000475 0.086680
v -0.304539 -3.000475 0.029268
v -0.304539 -3.000475 -0.029269
v -0.292835 -3.000475 -0.086681
v -0.269879 -3.000475 -0.140762
v -0.236550 -3.000475 -0.189434
v -0.194132 -3.000475 -0.230826
v -0.144253 -3.000475 -0.263347
v -0.088830 -3.000475 -0.285748
v -0.029994 -3.000475 -0.297168
v 0.000000 -3.000237 -0.000000
vt 0.505557 0.999878
vt 0.473967 0.677592
vt 0.505557 0.677592
vt 0.473967 0.999878
vt 0.442378 0.677592
vt 0.442378 0.999878
vt 0.410788 0.677592
vt 0.410788 0.999878
vt 0.379198 0.677592
vt 0.379198 0.999878
vt 0.347609 0.677592
vt 0.347609 0.999878
vt 0.316019 0.677592
vt 0.316019 0.999878
vt 0.284429 0.677592
vt 0.284429 0.999878
vt 0.252840 0.677592
vt 0.252840 0.999878
vt 0.221250 0.677592
vt 0.221250 0.999878
vt 0.189660 0.677592
vt 0.189660 0.999878
vt 0.158071 0.677592
vt 0.158071 0.999878
vt 0.126481 0.677592
vt 0.126481 0.999878
vt 0.094891 0.677592
vt 0.094891 0.999878
vt 0.063302 0.677592
vt 0.063302 0.999878
vt 0.031712 0.677592
vt 0.031712 0.999878
vt 0.000122 0.677592
vt 0.276737 0.000122
vt 0.037163 0.286967
vt 0.011595 0.260978
vt 0.302306 0.026111
vt 0.062732 0.312955
vt 0.327874 0.052099
vt 0.088300 0.338944
vt 0.353443 0.078088
vt 0.113869 0.364933
vt 0.379011 0.104077
vt 0.139437 0.390921
vt 0.404580 0.130065
vt 0.165006 0.416910
vt 0.430148 0.156054
vt 0.190574 0.442899
vt 0.455717 0.182043
vt 0.216142 0.468887
vt 0.481285 0.208031
vt 0.241711 0.494876
vt 0.506854 0.234020
vt 0.267279 0.520865
vt 0.532422 0.260009
vt 0.292848 0.546853
vt 0.557991 0.285997
vt 0.318416 0.572842
vt 0.583559 0.311986
vt 0.343985 0.598831
vt 0.609127 0.337975
vt 0.369553 0.624819
vt 0.660264 0.389952
vt 0.420690 0.676796
vt 0.395122 0.650808
vt 0.634696 0.363963
vt 0.857515 0.451547
vt 0.821701 0.458368
vt 0.804981 0.273146
vt 0.969705 0.186818
vt 0.983382 0.220613
vt 0.688176 0.128429
vt 0.718653 0.108422
vt 0.715980 0.436441
vt 0.685833 0.415940
vt 0.982502 0.328580
vt 0.968276 0.362148
vt 0.824718 0.088222
vt 0.860416 0.095625
vt 0.619760 0.289866
vt 0.620057 0.253410
vt 0.891310 0.437870
vt 0.949699 0.156341
vt 0.662187 0.153997
vt 0.749547 0.450667
vt 0.989906 0.292883
vt 0.788261 0.087925
vt 0.626581 0.325680
vt 0.921787 0.417863
vt 0.924130 0.130352
vt 0.641686 0.184145
vt 0.785245 0.458071
vt 0.990203 0.256426
vt 0.752448 0.094745
vt 0.640257 0.359475
vt 0.947775 0.392295
vt 0.893983 0.109851
vt 0.627461 0.217712
vt 0.001573 0.252724
vt 0.002023 0.252274
vt 0.006584 0.256851
vt 0.002474 0.251826
vt 0.003003 0.251472
vt 0.003534 0.251121
vt 0.004121 0.250877
vt 0.004710 0.250636
vt 0.005334 0.250512
vt 0.005959 0.250390
vt 0.006595 0.250390
vt 0.007231 0.250392
vt 0.007855 0.250516
vt 0.008479 0.250642
vt 0.009067 0.250886
vt 0.009654 0.251131
vt 0.010183 0.251485
vt 0.010711 0.251840
vt 0.011161 0.252290
vt 0.011609 0.252741
vt 0.011963 0.253271
vt 0.012314 0.253801
vt 0.012558 0.254389
vt 0.012799 0.254977
vt 0.012923 0.255601
vt 0.013045 0.256226
vt 0.013045 0.256862
vt 0.013043 0.257499
vt 0.012919 0.258123
vt 0.012793 0.258746
vt 0.012549 0.259334
vt 0.012304 0.259921
vt 0.011950 0.260450
vt 0.011145 0.261428
vt 0.010693 0.261876
vt 0.010164 0.262230
vt 0.009634 0.262582
vt 0.009046 0.262825
vt 0.008457 0.263067
vt 0.007833 0.263191
vt 0.007209 0.263313
vt 0.006573 0.263313
vt 0.005936 0.263310
vt 0.005312 0.263186
vt 0.004689 0.263060
vt 0.004101 0.262816
vt 0.003514 0.262571
vt 0.002985 0.262217
vt 0.002457 0.261862
vt 0.002007 0.261412
vt 0.001558 0.260961
vt 0.001205 0.260432
vt 0.000853 0.259901
vt 0.000610 0.259313
vt 0.000368 0.258725
vt 0.000244 0.258101
vt 0.000122 0.257476
vt 0.000122 0.256840
vt 0.000124 0.256204
vt 0.000249 0.255579
vt 0.000375 0.254956
vt 0.000618 0.254368
vt 0.000864 0.253781
vt 0.001218 0.253252
vt 0.489762 0.677454
vt 0.473963 0.677041
vt 0.442373 0.677041
vt 0.394993 0.677454
vt 0.363403 0.677454
vt 0.331814 0.677454
vt 0.300224 0.677454
vt 0.268634 0.677454
vt 0.252835 0.677041
vt 0.205455 0.677454
vt 0.173865 0.677454
vt 0.158066 0.677041
vt 0.110686 0.677454
vt 0.094887 0.677041
vt 0.063297 0.677041
vt 0.015917 0.677454
vt 0.000122 0.999878
vt 0.049834 0.300073
vt 0.075403 0.326061
vt 0.100971 0.352050
vt 0.126539 0.378039
vt 0.138987 0.391371
vt 0.177676 0.430016
vt 0.203245 0.456005
vt 0.215693 0.469337
vt 0.241261 0.495326
vt 0.266829 0.521315
vt 0.305519 0.559959
vt 0.331087 0.585948
vt 0.356656 0.611937
vt 0.394672 0.651258
vt 0.382224 0.637925
vn 0.095700 0.000000 -0.995400
vn 0.283800 0.000000 -0.958900
vn 0.462500 0.000000 -0.886600
vn 0.625100 0.000000 -0.780600
vn 0.765300 0.000000 -0.643700
vn 0.877000 0.000000 -0.480400
vn 0.954900 0.000000 -0.296900
vn 0.994900 0.000000 -0.100400
vn 0.994900 0.000000 0.100400
vn 0.954900 0.000000 0.296900
vn 0.877000 0.000000 0.480400
vn 0.765300 0.000000 0.643700
vn 0.625100 0.000000 0.780600
vn 0.462500 0.000000 0.886600
vn 0.283800 0.000000 0.958900
vn 0.095700 0.000000 0.995400
vn -0.095700 0.000000 0.995400
vn -0.283800 0.000000 0.958900
vn -0.462500 0.000000 0.886600
vn -0.625100 0.000000 0.780600
vn -0.765300 0.000000 0.643700
vn -0.877000 0.000000 0.480400
vn -0.954900 0.000000 0.296900
vn -0.994900 0.000000 0.100400
vn -0.994900 0.000000 -0.100400
vn -0.954900 0.000000 -0.296900
vn -0.877000 0.000000 -0.480400
vn -0.765300 0.000000 -0.643700
vn -0.625100 0.000000 -0.780600
vn -0.462400 0.000000 -0.886600
vn -0.095700 0.000000 -0.995400
vn -0.283800 0.000000 -0.958900
vn 0.000000 1.000000 -0.000000
vn -0.015800 -0.999900 -0.000800
vn 0.015600 -0.999900 0.002400
vn -0.015300 -0.999900 -0.003900
vn 0.014900 -0.999900 0.005500
vn -0.014300 -0.999900 -0.006900
vn 0.013500 -0.999900 0.008300
vn -0.012700 -0.999900 -0.009600
vn 0.011700 -0.999900 0.010900
vn -0.010600 -0.999900 -0.012000
vn 0.009400 -0.999900 0.013000
vn -0.008100 -0.999900 -0.013900
vn 0.006700 -0.999900 0.014600
vn -0.005300 -0.999900 -0.015200
vn 0.003800 -0.999900 0.015700
vn -0.002300 -0.999900 -0.016000
vn 0.000800 -0.999900 0.016200
vn 0.000800 -0.999900 -0.016200
vn -0.002300 -0.999900 0.016000
vn 0.003800 -0.999900 -0.015700
vn -0.005300 -0.999900 0.015200
vn 0.006700 -0.999900 -0.014600
vn -0.008100 -0.999900 0.013900
vn 0.009400 -0.999900 -0.013000
vn -0.010600 -0.999900 0.012000
vn 0.011700 -0.999900 -0.010900
vn -0.012700 -0.999900 0.009600
vn 0.013500 -0.999900 -0.008300
vn -0.014300 -0.999900 0.006900
vn 0.014900 -0.999900 -0.005500
vn -0.015300 -0.999900 0.003900
vn 0.015600 -0.999900 -0.002400
vn -0.015800 -0.999900 0.000800
vn 0.015800 -0.999900 0.000800
vn -0.015600 -0.999900 -0.002400
vn 0.015300 -0.999900 0.003900
vn -0.014900 -0.999900 -0.005500
vn 0.014300 -0.999900 0.006900
vn -0.013500 -0.999900 -0.008300
vn 0.012700 -0.999900 0.009600
vn -0.011700 -0.999900 -0.010900
vn 0.010600 -0.999900 0.012000
vn -0.009400 -0.999900 -0.013000
vn 0.008100 -0.999900 0.013900
vn -0.006700 -0.999900 -0.014600
vn 0.005300 -0.999900 0.015200
vn -0.003800 -0.999900 -0.015700
vn 0.002300 -0.999900 0.016000
vn -0.000800 -0.999900 -0.016200
vn -0.000800 -0.999900 0.016200
vn 0.002300 -0.999900 -0.016000
vn -0.003800 -0.999900 0.015700
vn 0.005300 -0.999900 -0.015200
vn -0.006700 -0.999900 0.014600
vn 0.008100 -0.999900 -0.013900
vn -0.009400 -0.999900 0.013000
vn 0.010600 -0.999900 -0.012000
vn -0.011700 -0.999900 0.010900
vn 0.012700 -0.999900 -0.009600
vn -0.013500 -0.999900 0.008300
vn 0.014300 -0.999900 -0.006900
vn -0.014900 -0.999900 0.005500
vn 0.015300 -0.999900 -0.003900
vn -0.015600 -0.999900 0.002400
vn 0.015800 -0.999900 -0.000800
vn 0.095100 0.105000 -0.989900
vn 0.282000 0.105100 -0.953600
vn 0.459800 0.105600 -0.881700
vn 0.621700 0.106000 -0.776100
vn 0.760900 0.106600 -0.640000
vn 0.872100 0.107000 -0.477500
vn 0.949400 0.107300 -0.295100
vn 0.989200 0.107500 -0.099900
vn 0.989200 0.107500 0.099900
vn 0.949400 0.107500 0.295100
vn 0.872100 0.107000 0.477500
vn 0.760900 0.106600 0.640000
vn 0.621700 0.106000 0.776100
vn 0.459800 0.105500 0.881700
vn 0.282300 0.105200 0.953500
vn 0.095100 0.105000 0.989900
vn -0.095200 0.105100 0.989900
vn -0.282300 0.105300 0.953500
vn -0.459800 0.105500 0.881700
vn -0.621700 0.106000 0.776100
vn -0.760900 0.106400 0.640100
vn -0.872100 0.107100 0.477500
vn -0.949400 0.107500 0.295100
vn -0.989200 0.107500 0.099900
vn -0.989200 0.107500 -0.099900
vn -0.949400 0.107500 -0.295100
vn -0.872100 0.107000 -0.477500
vn -0.760900 0.106600 -0.640000
vn -0.621600 0.106100 -0.776100
vn -0.459800 0.105600 -0.881700
vn -0.462500 0.000000 -0.886600
vn -0.095100 0.105000 -0.989900
vn -0.282300 0.105300 -0.953500
s off
f 2/1/1 3/2/1 1/3/1
f 4/4/2 5/5/2 3/2/2
f 6/6/3 7/7/3 5/5/3
f 8/8/4 9/9/4 7/7/4
f 10/10/5 11/11/5 9/9/5
f 12/12/6 13/13/6 11/11/6
f 14/14/7 15/15/7 13/13/7
f 16/16/8 17/17/8 15/15/8
f 18/18/9 19/19/9 17/17/9
f 20/20/10 21/21/10 19/19/10
f 22/22/11 23/23/11 21/21/11
f 24/24/12 25/25/12 23/23/12
f 26/26/13 27/27/13 25/25/13
f 28/28/14 29/29/14 27/27/14
f 30/30/15 31/31/15 29/29/15
f 32/32/16 33/33/16 31/31/16
f 34/34/17 35/35/17 33/36/17
f 36/37/18 37/38/18 35/35/18
f 38/39/19 39/40/19 37/38/19
f 40/41/20 41/42/20 39/40/20
f 42/43/21 43/44/21 41/42/21
f 44/45/22 45/46/22 43/44/22
f 46/47/23 47/48/23 45/46/23
f 48/49/24 49/50/24 47/48/24
f 50/51/25 51/52/25 49/50/25
f 52/53/26 53/54/26 51/52/26
f 54/55/27 55/56/27 53/54/27
f 56/57/28 57/58/28 55/56/28
f 58/59/29 59/60/29 57/58/29
f 60/61/30 61/62/30 59/60/30
f 64/63/31 1/64/31 63/65/31
f 62/66/32 63/65/32 61/62/32
f 12/67/33 10/68/33 65/69/33
f 30/70/33 28/71/33 65/69/33
f 48/72/33 46/73/33 65/69/33
f 4/74/33 2/75/33 65/69/33
f 2/75/33 64/63/33 65/69/33
f 22/76/33 20/77/33 65/69/33
f 40/78/33 38/79/33 65/69/33
f 58/80/33 56/81/33 65/69/33
f 14/82/33 12/67/33 65/69/33
f 32/83/33 30/70/33 65/69/33
f 50/84/33 48/72/33 65/69/33
f 6/85/33 4/74/33 65/69/33
f 24/86/33 22/76/33 65/69/33
f 42/87/33 40/78/33 65/69/33
f 60/88/33 58/80/33 65/69/33
f 16/89/33 14/82/33 65/69/33
f 34/90/33 32/83/33 65/69/33
f 52/91/33 50/84/33 65/69/33
f 8/92/33 6/85/33 65/69/33
f 26/93/33 24/86/33 65/69/33
f 44/94/33 42/87/33 65/69/33
f 62/95/33 60/88/33 65/69/33
f 18/96/33 16/89/33 65/69/33
f 36/97/33 34/90/33 65/69/33
f 54/98/33 52/91/33 65/69/33
f 10/68/33 8/92/33 65/69/33
f 28/71/33 26/93/33 65/69/33
f 46/73/33 44/94/33 65/69/33
f 64/63/33 62/95/33 65/69/33
f 20/77/33 18/96/33 65/69/33
f 38/79/33 36/97/33 65/69/33
f 56/81/33 54/98/33 65/69/33
f 1/99/34 66/100/34 98/101/34
f 66/100/35 3/102/35 98/101/35
f 3/102/36 67/103/36 98/101/36
f 67/103/37 5/104/37 98/101/37
f 5/104/38 68/105/38 98/101/38
f 68/105/39 7/106/39 98/101/39
f 7/106/40 69/107/40 98/101/40
f 69/107/41 9/108/41 98/101/41
f 9/108/42 70/109/42 98/101/42
f 70/109/43 11/110/43 98/101/43
f 11/110/44 71/111/44 98/101/44
f 71/111/45 13/112/45 98/101/45
f 13/112/46 72/113/46 98/101/46
f 72/113/47 15/114/47 98/101/47
f 15/114/48 73/115/48 98/101/48
f 73/115/49 17/116/49 98/101/49
f 17/116/50 74/117/50 98/101/50
f 74/117/51 19/118/51 98/101/51
f 19/118/52 75/119/52 98/101/52
f 75/119/53 21/120/53 98/101/53
f 21/120/54 76/121/54 98/101/54
f 76/121/55 23/122/55 98/101/55
f 23/122/56 77/123/56 98/101/56
f 77/123/57 25/124/57 98/101/57
f 25/124/58 78/125/58 98/101/58
f 78/125/59 27/126/59 98/101/59
f 27/126/60 79/127/60 98/101/60
f 79/127/61 29/128/61 98/101/61
f 29/128/62 80/129/62 98/101/62
f 80/129/63 31/130/63 98/101/63
f 31/130/64 81/131/64 98/101/64
f 81/131/65 33/36/65 98/101/65
f 33/36/66 82/132/66 98/101/66
f 82/132/67 35/133/67 98/101/67
f 35/133/68 83/134/68 98/101/68
f 83/134/69 37/135/69 98/101/69
f 37/135/70 84/136/70 98/101/70
f 84/136/71 39/137/71 98/101/71
f 39/137/72 85/138/72 98/101/72
f 85/138/73 41/139/73 98/101/73
f 41/139/74 86/140/74 98/101/74
f 86/140/75 43/141/75 98/101/75
f 43/141/76 87/142/76 98/101/76
f 87/142/77 45/143/77 98/101/77
f 45/143/78 88/144/78 98/101/78
f 88/144/79 47/145/79 98/101/79
f 47/145/80 89/146/80 98/101/80
f 89/146/81 49/147/81 98/101/81
f 49/147/82 90/148/82 98/101/82
f 90/148/83 51/149/83 98/101/83
f 51/149/84 91/150/84 98/101/84
f 91/150/85 53/151/85 98/101/85
f 53/151/86 92/152/86 98/101/86
f 92/152/87 55/153/87 98/101/87
f 55/153/88 93/154/88 98/101/88
f 93/154/89 57/155/89 98/101/89
f 57/155/90 94/156/90 98/101/90
f 94/156/91 59/157/91 98/101/91
f 59/157/92 95/158/92 98/101/92
f 95/158/93 61/159/93 98/101/93
f 61/159/94 96/160/94 98/101/94
f 96/160/95 63/161/95 98/101/95
f 63/161/96 97/162/96 98/101/96
f 97/162/97 1/99/97 98/101/97
f 66/163/98 1/3/98 3/2/98
f 2/1/1 4/4/1 3/2/1
f 67/164/99 3/2/99 5/5/99
f 4/4/2 6/6/2 5/5/2
f 68/165/100 5/5/100 7/7/100
f 6/6/3 8/8/3 7/7/3
f 69/166/101 7/7/101 9/9/101
f 8/8/4 10/10/4 9/9/4
f 70/167/102 9/9/102 11/11/102
f 10/10/5 12/12/5 11/11/5
f 71/168/103 11/11/103 13/13/103
f 12/12/6 14/14/6 13/13/6
f 72/169/104 13/13/104 15/15/104
f 14/14/7 16/16/7 15/15/7
f 73/170/105 15/15/105 17/17/105
f 16/16/8 18/18/8 17/17/8
f 74/171/106 17/17/106 19/19/106
f 18/18/9 20/20/9 19/19/9
f 75/172/107 19/19/107 21/21/107
f 20/20/10 22/22/10 21/21/10
f 76/173/108 21/21/108 23/23/108
f 22/22/11 24/24/11 23/23/11
f 77/174/109 23/23/109 25/25/109
f 24/24/12 26/26/12 25/25/12
f 78/175/110 25/25/110 27/27/110
f 26/26/13 28/28/13 27/27/13
f 79/176/111 27/27/111 29/29/111
f 28/28/14 30/30/14 29/29/14
f 80/177/112 29/29/112 31/31/112
f 30/30/15 32/32/15 31/31/15
f 81/178/113 31/31/113 33/33/113
f 32/32/16 34/179/16 33/33/16
f 82/132/114 33/36/114 35/35/114
f 34/34/17 36/37/17 35/35/17
f 83/180/115 35/35/115 37/38/115
f 36/37/18 38/39/18 37/38/18
f 84/181/116 37/38/116 39/40/116
f 38/39/19 40/41/19 39/40/19
f 85/182/117 39/40/117 41/42/117
f 40/41/20 42/43/20 41/42/20
f 86/183/118 41/42/118 43/44/118
f 42/43/21 44/45/21 43/44/21
f 87/184/119 43/44/119 45/46/119
f 44/45/22 46/47/22 45/46/22
f 88/185/120 45/46/120 47/48/120
f 46/47/23 48/49/23 47/48/23
f 89/186/121 47/48/121 49/50/121
f 48/49/24 50/51/24 49/50/24
f 90/187/122 49/50/122 51/52/122
f 50/51/25 52/53/25 51/52/25
f 91/188/123 51/52/123 53/54/123
f 52/53/26 54/55/26 53/54/26
f 92/189/124 53/54/124 55/56/124
f 54/55/27 56/57/27 55/56/27
f 93/190/125 55/56/125 57/58/125
f 56/57/28 58/59/28 57/58/28
f 94/191/126 57/58/126 59/60/126
f 58/59/29 60/61/29 59/60/29
f 95/192/127 59/60/127 61/62/127
f 60/61/128 62/66/128 61/62/128
f 97/193/129 63/65/129 1/64/129
f 64/63/31 2/75/31 1/64/31
f 96/194/130 61/62/130 63/65/130
f 62/66/32 64/63/32 63/65/32
