# Blender v2.76 (sub 0) OBJ File: 'tree.blend'
# www.blender.org
o Cylinder
v 0.339411 -0.640598 -1.368198
v 0.768017 -0.640598 -1.288271
v 1.131371 -0.640598 -1.060660
v 1.374156 -0.640598 -0.720016
v 1.459411 -0.640598 -0.318198
v 0.339411 2.222644 -0.318198
v 1.374156 -0.640598 0.083620
v 1.131371 -0.640598 0.424264
v 0.768017 -0.640598 0.651875
v 0.339411 -0.640598 0.731802
v -0.089194 -0.640598 0.651876
v -0.452548 -0.640598 0.424264
v -0.695334 -0.640598 0.083620
v -0.780589 -0.640598 -0.318198
v -0.695334 -0.640598 -0.720016
v -0.452548 -0.640598 -1.060660
v -0.089194 -0.640598 -1.288272
v 0.339411 -1.036388 -0.668198
v 0.339411 -0.640598 -0.668198
v 0.473350 -1.036388 -0.641556
v 0.473350 -0.640598 -0.641556
v 0.586899 -1.036388 -0.565685
v 0.586899 -0.640598 -0.565685
v 0.662769 -1.036388 -0.452137
v 0.662769 -0.640598 -0.452137
v 0.689411 -1.036388 -0.318198
v 0.689411 -0.640598 -0.318198
v 0.662769 -1.036388 -0.184259
v 0.662769 -0.640598 -0.184259
v 0.586899 -1.036388 -0.070711
v 0.586899 -0.640598 -0.070711
v 0.473350 -1.036388 0.005160
v 0.473350 -0.640598 0.005160
v 0.339411 -1.036388 0.031802
v 0.339411 -0.640598 0.031802
v 0.205472 -1.036388 0.005160
v 0.205472 -0.640598 0.005160
v 0.091924 -1.036388 -0.070711
v 0.091924 -0.640598 -0.070711
v 0.016053 -1.036388 -0.184259
v 0.016053 -0.640598 -0.184259
v -0.010589 -1.036388 -0.318198
v -0.010589 -0.640598 -0.318198
v 0.016053 -1.036388 -0.452137
v 0.016053 -0.640598 -0.452137
v 0.091924 -1.036388 -0.565686
v 0.091924 -0.640598 -0.565686
v 0.205472 -1.036388 -0.641556
v 0.205472 -0.640598 -0.641556
v 0.339411 -0.640598 -0.318198
vt 0.476549 0.524671
vt 0.491510 0.191153
vt 0.560613 0.470434
vt 0.625514 0.432696
vt 0.691885 0.397607
vt 0.399287 0.468004
vt 0.341471 0.429870
vt 0.282037 0.394310
vt 0.197471 0.349264
vt 0.209888 0.249996
vt 0.215750 0.175150
vt 0.218586 0.100128
vt 0.217735 0.000089
vt 0.774749 0.120961
vt 0.781292 0.025370
vt 0.773461 0.190209
vt 0.775213 0.259446
vt 0.782396 0.354992
vt 0.275717 0.934275
vt 0.303279 0.934274
vt 0.303279 0.959663
vt 0.330842 0.934274
vt 0.330842 0.959663
vt 0.358405 0.934274
vt 0.358405 0.959663
vt 0.385967 0.934274
vt 0.385967 0.959663
vt 0.413530 0.934274
vt 0.413530 0.959663
vt 0.441093 0.934274
vt 0.441093 0.959663
vt 0.000089 0.934275
vt 0.027652 0.934275
vt 0.027652 0.959663
vt 0.055215 0.934275
vt 0.082778 0.934275
vt 0.082778 0.959663
vt 0.110340 0.934275
vt 0.110340 0.959663
vt 0.137903 0.934275
vt 0.137903 0.959663
vt 0.165466 0.934275
vt 0.165466 0.959663
vt 0.193029 0.934275
vt 0.193029 0.959663
vt 0.220591 0.934275
vt 0.220591 0.959663
vt 0.248154 0.934275
vt 0.275717 0.959663
vt 0.248154 0.959663
vt 0.220967 0.621596
vt 0.999911 0.189451
vt 0.730312 0.621596
vt 0.000089 0.162634
vt 0.000089 0.959663
vt 0.055215 0.959663
vn -0.498400 0.344200 -0.795700
vn 0.172500 0.339100 -0.924800
vn -0.762300 0.351700 -0.543300
vn -0.913600 0.357400 -0.193800
vn -0.913600 0.357400 0.193800
vn -0.762300 0.351700 0.543300
vn -0.498400 0.344200 0.795700
vn -0.172500 0.339100 0.924800
vn 0.172500 0.339100 0.924800
vn 0.498400 0.344200 0.795700
vn 0.762300 0.351700 0.543300
vn 0.913600 0.357400 0.193800
vn 0.913600 0.357400 -0.193800
vn 0.762300 0.351700 -0.543300
vn -0.172500 0.339100 -0.924800
vn 0.498400 0.344200 -0.795700
vn 0.195100 0.000000 -0.980800
vn 0.555600 0.000000 -0.831500
vn 0.831500 0.000000 -0.555600
vn 0.980800 0.000000 -0.195100
vn 0.980800 0.000000 0.195100
vn 0.831500 0.000000 0.555600
vn 0.555600 -0.000000 0.831500
vn 0.195100 -0.000000 0.980800
vn -0.195100 0.000000 0.980800
vn -0.555600 -0.000000 0.831500
vn -0.831500 0.000000 0.555600
vn -0.980800 0.000000 0.195100
vn -0.980800 0.000000 -0.195100
vn -0.831500 -0.000000 -0.555600
vn -0.195100 0.000000 -0.980800
vn -0.555600 -0.000000 -0.831500
vn 0.000000 -1.000000 0.000000
s off
f 16/1/1 6/2/1 17/3/1
f 1/4/2 6/2/2 2/5/2
f 15/6/3 6/2/3 16/1/3
f 14/7/4 6/2/4 15/6/4
f 13/8/5 6/2/5 14/7/5
f 12/9/6 6/2/6 13/8/6
f 11/10/7 6/2/7 12/9/7
f 10/11/8 6/2/8 11/10/8
f 9/12/9 6/2/9 10/11/9
f 8/13/10 6/2/10 9/12/10
f 7/14/11 6/2/11 8/15/11
f 5/16/12 6/2/12 7/14/12
f 4/17/13 6/2/13 5/16/13
f 3/18/14 6/2/14 4/17/14
f 17/3/15 6/2/15 1/4/15
f 2/5/16 6/2/16 3/18/16
f 19/19/17 21/20/17 20/21/17
f 21/20/18 23/22/18 22/23/18
f 23/22/19 25/24/19 24/25/19
f 25/24/20 27/26/20 26/27/20
f 27/26/21 29/28/21 28/29/21
f 29/28/22 31/30/22 30/31/22
f 31/32/23 33/33/23 32/34/23
f 32/34/24 33/33/24 35/35/24
f 35/35/25 37/36/25 36/37/25
f 37/36/26 39/38/26 38/39/26
f 39/38/27 41/40/27 40/41/27
f 41/40/28 43/42/28 42/43/28
f 43/42/29 45/44/29 44/45/29
f 45/44/30 47/46/30 46/47/30
f 49/48/31 19/19/31 18/49/31
f 47/46/32 49/48/32 48/50/32
f 13/8/33 14/7/33 50/51/33
f 5/16/33 7/14/33 50/52/33
f 2/5/33 3/18/33 50/53/33
f 10/11/33 11/10/33 50/54/33
f 14/7/33 15/6/33 50/51/33
f 7/14/33 8/15/33 50/52/33
f 3/18/33 4/17/33 50/52/33
f 11/10/33 12/9/33 50/54/33
f 15/6/33 16/1/33 50/51/33
f 8/13/33 9/12/33 50/54/33
f 4/17/33 5/16/33 50/52/33
f 12/9/33 13/8/33 50/51/33
f 1/4/33 2/5/33 50/53/33
f 16/1/33 17/3/33 50/53/33
f 9/12/33 10/11/33 50/54/33
f 17/3/33 1/4/33 50/53/33
f 18/49/17 19/19/17 20/21/17
f 20/21/18 21/20/18 22/23/18
f 22/23/19 23/22/19 24/25/19
f 24/25/20 25/24/20 26/27/20
f 26/27/21 27/26/21 28/29/21
f 28/29/22 29/28/22 30/31/22
f 30/55/23 31/32/23 32/34/23
f 34/56/24 32/34/24 35/35/24
f 34/56/25 35/35/25 36/37/25
f 36/37/26 37/36/26 38/39/26
f 38/39/27 39/38/27 40/41/27
f 40/41/28 41/40/28 42/43/28
f 42/43/29 43/42/29 44/45/29
f 44/45/30 45/44/30 46/47/30
f 48/50/31 49/48/31 18/49/31
f 46/47/32 47/46/32 48/50/32
